<?xml version="1.0" encoding="iso-8859-1"?>
<!-- Generator: Adobe Illustrator 16.0.4, SVG Export Plug-In . SVG Version: 6.00 Build 0)  -->
<!DOCTYPE svg PUBLIC "-//W3C//DTD SVG 1.1//EN" "http://www.w3.org/Graphics/SVG/1.1/DTD/svg11.dtd">
<svg version="1.1" id="Layer_1" xmlns="http://www.w3.org/2000/svg" xmlns:xlink="http://www.w3.org/1999/xlink" x="0px" y="0px"
	 width="36px" height="22px" viewBox="0 0 36 22" style="enable-background:new 0 0 36 22;" xml:space="preserve">
<g id="_x33_36-reloop.png">
	<g>
		<path d="M13,15.002c-0.043,0.002-0.11,0.005-0.23,0.01c-0.195,0.002-0.483,0.004-0.849,0.008c-0.739-0.007-1.809-0.044-3.06-0.201
			c-1.242-0.159-2.7-0.437-4.012-1.023c-0.655-0.29-1.249-0.672-1.669-1.134c-0.214-0.23-0.384-0.479-0.498-0.755
			c-0.067-0.135-0.108-0.281-0.146-0.432c-0.026-0.073-0.035-0.153-0.044-0.233l-0.016-0.12l-0.009-0.061l-0.005-0.03l-0.003-0.015
			L2.46,11.008c-0.002,0.033,0.001-0.085-0.004,0.072l0.004-0.344c0-0.121,0.002-0.238,0.017-0.277
			c0.013-0.117,0.024-0.249,0.075-0.411C2.628,9.739,2.77,9.444,2.965,9.165c0.383-0.564,0.977-1.059,1.633-1.448
			c1.321-0.789,2.811-1.241,4.083-1.55c1.282-0.306,2.384-0.464,3.154-0.554C12.607,5.522,13.041,5.5,13.041,5.5v-1
			c0,0-0.47-0.024-1.275-0.014S9.809,4.541,8.423,4.722c-1.381,0.192-3.01,0.484-4.712,1.268C2.867,6.384,1.99,6.929,1.258,7.778
			C0.894,8.197,0.574,8.7,0.363,9.259C0.25,9.523,0.164,9.838,0.102,10.173c-0.041,0.185-0.052,0.296-0.062,0.405L0,10.92
			l0.006,0.526c0.003,0.148,0.008,0.298,0.035,0.447c0.038,0.303,0.094,0.603,0.191,0.896c0.174,0.59,0.465,1.139,0.811,1.608
			c0.696,0.952,1.57,1.608,2.417,2.103c1.71,0.985,3.371,1.452,4.783,1.794c1.415,0.329,2.601,0.493,3.438,0.589
			c0.424,0.04,0.756,0.072,0.982,0.094c0.199,0.013,0.3,0.019,0.337,0.021V22l8-4.999L13,12V15.002z M35.994,10.555
			c-0.003-0.149-0.007-0.298-0.035-0.448c-0.038-0.303-0.094-0.603-0.192-0.895c-0.173-0.59-0.463-1.14-0.81-1.609
			c-0.696-0.951-1.57-1.607-2.417-2.102c-1.71-0.985-3.371-1.453-4.783-1.794c-1.416-0.33-2.601-0.494-3.438-0.589
			c-0.424-0.041-0.756-0.073-0.982-0.095c-0.199-0.013-0.3-0.019-0.337-0.021V0l-8,5l8,5V6.998c0.043-0.002,0.11-0.005,0.229-0.01
			c0.197-0.001,0.484-0.004,0.85-0.007c0.739,0.006,1.809,0.043,3.06,0.2c1.243,0.16,2.7,0.437,4.013,1.023
			c0.654,0.29,1.248,0.672,1.668,1.135c0.215,0.229,0.385,0.478,0.498,0.755c0.067,0.134,0.108,0.28,0.146,0.432
			c0.026,0.072,0.035,0.152,0.044,0.233l0.016,0.12l0.01,0.06l0.004,0.03l0.003,0.016l0.001,0.007
			c0.002-0.033-0.002,0.086,0.004-0.072l-0.004,0.345c0,0.12-0.002,0.237-0.017,0.277c-0.013,0.116-0.024,0.248-0.075,0.41
			c-0.076,0.309-0.218,0.604-0.414,0.884c-0.383,0.564-0.975,1.058-1.633,1.447c-1.32,0.79-2.81,1.241-4.082,1.551
			c-1.282,0.305-2.385,0.463-3.154,0.554c-0.771,0.091-1.206,0.112-1.206,0.112v1c0,0,0.47,0.024,1.275,0.015
			c0.806-0.012,1.958-0.055,3.343-0.235c1.381-0.193,3.01-0.484,4.712-1.268c0.845-0.395,1.721-0.939,2.452-1.789
			c0.365-0.419,0.685-0.923,0.896-1.48c0.114-0.266,0.2-0.579,0.262-0.915c0.041-0.185,0.052-0.296,0.062-0.404L36,11.08
			L35.994,10.555z"/>
	</g>
</g>
<g>
</g>
<g>
</g>
<g>
</g>
<g>
</g>
<g>
</g>
<g>
</g>
<g>
</g>
<g>
</g>
<g>
</g>
<g>
</g>
<g>
</g>
<g>
</g>
<g>
</g>
<g>
</g>
<g>
</g>
</svg>
